<?xml version="1.0" standalone="no"?><!DOCTYPE svg PUBLIC "-//W3C//DTD SVG 1.1//EN" "http://www.w3.org/Graphics/SVG/1.1/DTD/svg11.dtd"><svg t="1720141347660" class="icon" viewBox="0 0 1024 1024" version="1.1" xmlns="http://www.w3.org/2000/svg" p-id="1738" xmlns:xlink="http://www.w3.org/1999/xlink" width="1em" height="1em"><path fill="currentColor" d="M745.485714 285.485714c21.714286-21.6 21.714286-56.8 0-78.4l-79.885714-79.885714 0.114286 0.114286c-21.142857-21.142857-57.485714-57.485714-108.914286-108.8-24.228571-23.657143-63.428571-23.428571-87.428571 0.571428L19.314286 468.8a61.531429 61.531429 0 0 0 0 87.314286L469.257143 1005.714286a61.874286 61.874286 0 0 0 87.428571 0l188.685715-188.571429c21.714286-21.6 21.714286-56.8 0-78.4a55.657143 55.657143 0 0 0-78.514286 0l-142.857143 143.085714c-5.942857 5.942857-15.2 5.942857-21.142857 0L143.428571 522.742857c-5.942857-5.942857-5.942857-15.2 0-21.142857l359.314286-359.085714c0.457143-0.457143 1.028571-0.8 1.485714-1.257143 5.942857-4.685714 14.171429-4.228571 19.657143 1.257143l143.085715 142.971428c21.714286 21.714286 56.914286 21.714286 78.514285 0zM393.828571 514.742857a121.485714 121.371429 0 1 0 242.971429 0 121.485714 121.371429 0 1 0-242.971429 0z m612.8-44.114286L866.171429 330.857143c-21.714286-21.6-56.914286-21.6-78.514286 0.114286a55.314286 55.314286 0 0 0 0 78.4l94.857143 94.742857c5.942857 5.942857 5.942857 15.2 0 21.142857l-93.485715 93.371428a55.314286 55.314286 0 0 0 0 78.4 55.657143 55.657143 0 0 0 78.514286 0l139.2-139.085714a61.634286 61.634286 0 0 0-0.114286-87.314286z" p-id="1739"></path></svg>