<?xml version="1.0" standalone="no"?><!DOCTYPE svg PUBLIC "-//W3C//DTD SVG 1.1//EN" "http://www.w3.org/Graphics/SVG/1.1/DTD/svg11.dtd"><svg t="1720408375305" class="icon" viewBox="0 0 1024 1024" version="1.1" xmlns="http://www.w3.org/2000/svg" p-id="1748" xmlns:xlink="http://www.w3.org/1999/xlink" width="1em" height="1em"><path fill="currentColor" d="M513.109333 0L68.053333 255.658667v512.682666L513.109333 1024l442.88-255.658667V255.658667L513.066667 0zM512 148.650667l317.013333 180.352v365.994666l-317.013333 180.352-313.514667-178.432-3.413333-367.914666L512 148.650667z m2.090667 25.173333c-41.685333 24.021333-83.285333 48.128-124.928 72.192v10.837333l111.274666 64.981334v20.565333l17.152-9.898667 10.922667 6.4v-14.336c37.717333-21.589333 77.098667-44.373333 109.568-63.146666 0.170667-5.248 0.128-10.794667 0.170667-15.914667l-124.16-71.68zM355.626667 261.973333c-41.386667 23.594667-82.389333 47.872-123.434667 72.149334v145.152l123.434667 71.253333 17.152-9.898667V416.170667l106.24-61.44V334.08L355.669333 261.973333z m317.568 3.754667l-123.392 71.253333v14.378667l112.469333 65.749333v130.858667l10.922667 6.314667 123.434666-71.253334V337.834667l-123.434666-72.149334zM517.546667 357.12l-123.434667 71.338667v146.090666c41.173333 23.68 82.304 47.445333 123.434667 71.253334l123.434666-71.338667v-145.152L517.546667 357.12z m-264.405334 158.848c-6.954667 4.096-13.994667 8.064-20.906666 12.16v145.152l123.392 71.338667 17.152-9.898667v-124.501333l20.181333-11.690667-20.181333-11.648v-21.674667l-17.152 9.941334c-35.2-20.394667-72.106667-41.642667-102.485334-59.178667z m522.581334 3.669333l-102.528 59.221334-10.88-6.314667v14.250667l-21.034667 12.16 21.034667 12.245333v130.858667l10.88 6.314666 123.434666-71.338666v-145.152l-20.906666-12.245334z m-361.386667 91.221334c-6.698667 3.925333-13.482667 7.808-20.224 11.690666v146.090667l123.434667 71.253333 123.434666-71.253333v-145.194667l-20.906666-12.245333-102.528 59.264-103.168-59.605333z" p-id="1749"></path></svg>