<?xml version="1.0" standalone="no"?><!DOCTYPE svg PUBLIC "-//W3C//DTD SVG 1.1//EN" "http://www.w3.org/Graphics/SVG/1.1/DTD/svg11.dtd"><svg t="1720141359478" class="icon" viewBox="0 0 1024 1024" version="1.1" xmlns="http://www.w3.org/2000/svg" p-id="1899" xmlns:xlink="http://www.w3.org/1999/xlink" width="1em" height="1em"><path fill="currentColor" d="M908.9035264 209.88988416L575.52510179 17.41444779c-34.73557845-20.05498197-91.57762731-20.05498197-126.31320576 0L115.83463651 209.88988416c-34.7367424 20.05498197-63.15718542 69.28021277-63.15718542 109.39017785l0 384.95203783c0 40.10996509 28.42044189 89.33519474 63.15718542 109.39017785l333.37842347 192.47543637c34.73557845 20.05498197 91.57762731 20.05498197 126.31320576 0l333.37842347-192.47543637c34.7367424-20.05498197 63.15718542-69.28021277 63.15718542-109.39017785L972.06187577 319.28006201C972.06071182 279.17126087 943.6402688 229.94486613 908.9035264 209.88988416zM621.51592163 511.75666233c0 122.72019115-99.48435456 222.20454685-222.20454684 222.20454684-122.72019115 0-222.20454685-99.48435456-222.20454684-222.20454684l0 0L177.10682795 342.16893781c0-29.05963975 23.55834653-52.61798627 52.61798627-52.61798627 29.05963975 0 52.61798627 23.55834653 52.61798628 52.61798627l0 169.58656057c0 64.60091051 52.36882659 116.96857429 116.96857429 116.96857429s116.96857429-52.36882659 116.9685743-116.96857429L516.27994909 342.16893781c0-29.05963975 23.55834653-52.61798627 52.61798627-52.61798627 29.05963975 0 52.61798627 23.55834653 52.61798627 52.61798627L621.51592163 511.75666233zM847.63133497 681.3432229c0 29.05963975-23.55834653 52.61798627-52.61798628 52.61798627-29.05963975 0-52.61798627-23.55834653-52.61798627-52.61798627L742.39536242 342.16893781c0-29.05963975 23.55834653-52.61798627 52.61798627-52.61798627 29.05963975 0 52.61798627 23.55834653 52.61798628 52.61798627L847.63133497 681.3432229z" p-id="1900"></path></svg>