<svg xmlns="http://www.w3.org/2000/svg" viewBox="0 0 50 50"><path d="M21.22 0v21.66a4.19 4.19 0 0 1-2.11 3.64L.36 36.12A8.52 8.52 0 0 1 0 33.66V16.72a8.48 8.48 0 0 1 1.13-4.23 8.59 8.59 0 0 1 3.11-3.11L18.9.91A8.75 8.75 0 0 1 21.22 0z" fill="#2a3294"></path><path d="M44 39.45A8.7 8.7 0 0 1 42 41l-14.62 8.46a8.6 8.6 0 0 1-8.48 0L4.24 41a8.42 8.42 0 0 1-1.95-1.56L21 28.63a4.17 4.17 0 0 1 4.21 0z" fill="#ff006f"></path><path d="M46.28 16.72v16.94a8.52 8.52 0 0 1-.37 2.46L27.16 25.3a4.23 4.23 0 0 1-2.1-3.65V0a8.89 8.89 0 0 1 2.32.91L42 9.38a8.52 8.52 0 0 1 4.24 7.34z" fill="#0087ff"></path></svg>