<svg xmlns="http://www.w3.org/2000/svg" viewBox="0 0 500 500" xml:space="preserve"><path fill="none" d="M410.4 412.5c25.3-25.3.1-124.2-97.1-221.5-74-74-149-106.3-191.8-106.3-13.4 0-23.6 3.2-29.7 9.2-3.1 3.1-5.4 7.2-7 12.4-.5 2.6-.9 5.3-1.2 8.1.3-2.7.7-5.4 1.2-8.1-11.1 37 18.7 123.7 104.2 209.1 50.1 50.1 100.6 81 141.2 95.9-4.3-1.7-8.7-3.5-13-5.5 4.4 2 8.7 3.8 13 5.5 19.5 7.1 36.7 10.5 50.6 10.5 13.4-.1 23.6-3.2 29.6-9.3z"/><linearGradient id="a" gradientUnits="userSpaceOnUse" x1="251.126" y1="487.476" x2="251.126" y2="19"><stop offset="0" style="stop-color:#0ba0f2"/><stop offset="1" style="stop-color:#2653f5"/></linearGradient><path fill="url(#a)" d="M450.3 263.6c24.8 60.2 24.6 114.4-6 142.3-25.6 23.3-67.5 23.6-114.1 5.3-40.7-14.8-91.2-45.8-141.2-95.9-85.5-85.3-115.3-172-104.1-209C89.3 81.8 100 62 117.4 49.2c28.9-21.3 71-19.2 116.7 1.4-77.2-39.7-148.4-43.3-188.7-3-61.9 61.9-20.1 197 97.1 314.3 80.7 80.7 169.9 125.7 237.8 125.7 30.8 0 57.2-9.2 76.5-28.5 41.5-41.6 36.5-115.8-6.5-195.5z"/><linearGradient id="b" gradientUnits="userSpaceOnUse" x1="276.516" y1="424.217" x2="276.516" y2="34.133"><stop offset="0" style="stop-color:#7d2670"/><stop offset="1" style="stop-color:#ff3667"/></linearGradient><path fill="url(#b)" d="M117.4 49.2C100 62 89.3 81.8 84.9 106.3c1.5-5.1 3.9-9.3 7-12.4 6-6 16.3-9.2 29.7-9.2 42.8 0 117.8 32.3 191.8 106.3 97.2 97.2 122.5 196.1 97.1 221.5-6 6-16.3 9.2-29.7 9.2-13.8 0-31.1-3.4-50.6-10.5 46.6 18.3 88.5 17.9 114.1-5.3 30.7-27.9 30.8-82.1 6-142.3-21.2-39.4-51.8-80.2-90.6-119-41-41-84.2-72.7-125.6-94.1-45.7-20.5-87.8-22.6-116.7-1.3z"/><path fill="none" d="M91.8 412.5c25.3 25.3 124.2.1 221.5-97.1 74-74 106.3-149 106.3-191.8 0-13.4-3.2-23.6-9.2-29.7-3.1-3.1-7.2-5.4-12.4-7-2.6-.5-5.3-.9-8.1-1.2 2.7.3 5.4.7 8.1 1.2-37-11.2-123.7 18.7-209.1 104.1-50.1 50.1-81 100.6-95.9 141.2 1.7-4.3 3.5-8.7 5.5-13-2 4.4-3.8 8.7-5.5 13-7 19.6-10.4 36.8-10.4 50.7 0 13.4 3.2 23.6 9.2 29.6z"/><linearGradient id="c" gradientUnits="userSpaceOnUse" x1="16.888" y1="253.238" x2="485.365" y2="253.238"><stop offset="0" style="stop-color:#0ba0f2"/><stop offset="1" style="stop-color:#2653f5"/></linearGradient><path fill="url(#c)" d="M240.7 452.4c-60.2 24.8-114.4 24.6-142.3-6-23.3-25.6-23.6-67.5-5.3-114.1 14.8-40.7 45.8-91.2 95.9-141.2C274.4 105.7 361.1 75.8 398.1 87c24.5 4.5 44.3 15.2 57.1 32.5 21.3 28.9 19.2 71-1.4 116.7 39.7-77.2 43.3-148.4 3-188.7-61.9-61.9-197-20.1-314.3 97.1C61.8 225.4 16.9 314.5 16.9 382.5c0 30.8 9.2 57.2 28.5 76.5 41.4 41.4 115.6 36.4 195.3-6.6z"/><linearGradient id="d" gradientUnits="userSpaceOnUse" x1="360.68" y1="404.123" x2="360.68" y2="86.989"><stop offset="0" style="stop-color:#ff3667"/><stop offset="1" style="stop-color:#7d2670"/></linearGradient><path fill="url(#d)" d="M251.1 368.3c21.6 15.4 42.4 27.2 61.6 35.8 15.8-12.8 31.6-26.9 47-42.3 41-41 72.7-84.2 94.1-125.6 20.6-45.7 22.7-87.8 1.4-116.7-12.8-17.3-32.6-28-57.1-32.5 5.1 1.5 9.3 3.9 12.4 7 6 6 9.2 16.3 9.2 29.7 0 42.8-32.3 117.8-106.3 191.8-21 20.8-42 38.4-62.3 52.8z"/><linearGradient id="e" gradientUnits="userSpaceOnUse" x1="165.636" y1="470.267" x2="165.636" y2="332.305"><stop offset="0" style="stop-color:#ff3667"/><stop offset="1" style="stop-color:#7d2670"/></linearGradient><path fill="url(#e)" d="M189.6 404.1c-46.7 20.9-83.6 22.5-97.7 8.4-6-6-9.2-16.3-9.2-29.7 0-13.8 3.4-31.1 10.5-50.6-18.3 46.6-17.9 88.5 5.3 114.1 27.9 30.7 82.1 30.8 142.3 6 3.5-1.9 6.9-3.8 10.4-5.8-20.5-11.7-41.1-25.9-61.6-42.4z"/></svg>